<?xml version="1.0" encoding="UTF-8" standalone="no"?>
<!-- Created with Inkscape (http://www.inkscape.org/) -->

<svg
   width="169.38333mm"
   height="169.33336mm"
   viewBox="0 0 169.38333 169.33336"
   version="1.1"
   id="svg1"
   xml:space="preserve"
   xmlns="http://www.w3.org/2000/svg"
   xmlns:svg="http://www.w3.org/2000/svg"><defs
     id="defs1" /><g
     id="layer1"
     transform="translate(-20.283337,-63.78334)"><g
       style="fill:none"
       id="g1"
       transform="matrix(0.197541,0,0,0.197541,20.333335,91.627946)"><g
         mask="url(#mask0_2990_8371)"
         id="g12"><mask
           id="mask1_2990_8371"
           maskUnits="userSpaceOnUse"
           x="0"
           y="0"
           width="522"
           height="522"><circle
             cx="261"
             cy="261"
             r="261"
             fill="#d9d9d9"
             id="circle1" /></mask><g
           mask="url(#mask1_2990_8371)"
           id="g11"><path
             d="M 126.426,130.5 H 261.004 V 261 H 126.426 Z"
             fill="#4b7abd"
             stroke="#ffffff"
             stroke-width="8"
             id="path2" /><rect
             x="395.57999"
             y="259"
             width="130.5"
             height="130.5"
             fill="#599609"
             stroke="#ffffff"
             stroke-width="8"
             id="rect2" /><path
             d="M 261.504,-9.01758 H 527.515 V 261.5 H 394 L 261.504,135 Z"
             fill="#599609"
             stroke="#ffffff"
             stroke-width="8"
             id="path3" /><path
             d="M 126.426,261 H 395.582 V 395.578 530.156 H 261.004 V 395.578 H 126.426 Z"
             fill="#72ae23"
             stroke="#ffffff"
             stroke-width="8"
             id="path4" /><path
             d="M 261.008,130.5 395.586,261 H 261.008 Z"
             fill="#5ea4e4"
             stroke="#ffffff"
             stroke-width="8"
             stroke-linejoin="bevel"
             id="path5" /><path
             d="M 306.59,532.023 -4.50842,523.288 V 392.255 H 306.59 Z"
             fill="#4c7e0b"
             stroke="#ffffff"
             stroke-width="8"
             id="path6" /><path
             d="M 126.426,391.499 H -8.15233 v -130.5 H 126.426 Z"
             fill="#72ae23"
             stroke="#ffffff"
             stroke-width="6"
             id="path7" /><path
             d="M 395.58,530.155 526.08,391.499 H 395.58 Z"
             fill="#599609"
             stroke="#ffffff"
             stroke-width="6"
             id="path8" /><path
             d="m -6.11523,261 -2e-5,-269.15622 H 126.424 l 134.578,-1e-5 V 134.578 H 128.463 L 126.424,261 Z"
             fill="#72ae23"
             stroke="#ffffff"
             stroke-width="8"
             id="path9" /><path
             d="M 261,-1.14087e-5 C 405.146,-1.77095e-5 522,116.854 522,261 522,405.146 405.146,522 261,522 116.854,522 -5.10784e-6,405.146 -1.14087e-5,261 -1.77095e-5,116.854 116.854,-5.10784e-6 261,-1.14087e-5 Z M 261,476.73 C 380.144,476.73 476.73,380.144 476.73,261 476.73,141.855 380.144,45.2698 261,45.2698 141.855,45.2698 45.2698,141.856 45.2698,261 45.2698,380.144 141.856,476.73 261,476.73 Z"
             fill="#1b5471"
             id="path10" /><g
             style="mix-blend-mode:overlay"
             id="g10"><circle
               cx="511"
               cy="466"
               r="323"
               fill="#ffffff"
               fill-opacity="0.4"
               id="circle10" /></g></g></g><path
         d="m 416.106,471 -31.442,-93.968 h 26.29 l 19.185,63.948 -3.908,-0.533 21.138,-49.915 h 14.921 l 22.027,50.093 -4.264,0.355 19.185,-63.948 h 26.289 L 493.553,471 h -18.296 l -22.204,-53.468 2.842,0.356 L 434.224,471 Z m 119.412,0 V 339.552 h 24.868 v 56.665 l -4.973,2.131 c 1.302,-4.263 3.612,-8.112 6.927,-11.546 3.435,-3.553 7.52,-6.395 12.257,-8.526 4.737,-2.132 9.711,-3.198 14.921,-3.198 7.106,0 13.027,1.421 17.764,4.263 4.855,2.843 8.467,7.165 10.835,12.968 2.487,5.684 3.731,12.73 3.731,21.138 V 471 h -25.224 v -55.599 c 0,-4.263 -0.592,-7.816 -1.777,-10.658 -1.184,-2.842 -3.019,-4.915 -5.506,-6.217 -2.369,-1.421 -5.329,-2.013 -8.882,-1.777 -2.842,0 -5.507,0.474 -7.993,1.421 -2.369,0.829 -4.441,2.073 -6.218,3.731 -1.658,1.658 -3.019,3.552 -4.085,5.684 -0.948,2.132 -1.421,4.441 -1.421,6.928 V 471 h -12.435 c -2.723,0 -5.151,0 -7.282,0 -2.132,0 -3.968,0 -5.507,0 z m 107.303,0 v -93.968 h 25.224 V 471 Z m 12.434,-113.33 c -4.855,0 -8.645,-1.184 -11.369,-3.552 -2.723,-2.369 -4.085,-5.744 -4.085,-10.126 0,-4.026 1.362,-7.283 4.085,-9.769 2.843,-2.606 6.632,-3.908 11.369,-3.908 4.855,0 8.645,1.243 11.368,3.73 2.724,2.368 4.086,5.684 4.086,9.947 0,4.145 -1.421,7.461 -4.263,9.948 -2.724,2.487 -6.454,3.73 -11.191,3.73 z m 60.691,115.106 c -8.763,0 -16.579,-1.421 -23.448,-4.263 -6.75,-2.96 -12.197,-6.987 -16.342,-12.079 l 15.632,-13.5 c 3.671,3.908 7.756,6.75 12.256,8.526 4.5,1.658 9,2.487 13.5,2.487 1.777,0 3.376,-0.177 4.797,-0.533 1.539,-0.473 2.842,-1.065 3.907,-1.776 1.066,-0.829 1.836,-1.776 2.31,-2.842 0.592,-1.184 0.888,-2.428 0.888,-3.73 0,-2.606 -1.066,-4.678 -3.198,-6.218 -1.184,-0.592 -3.019,-1.302 -5.506,-2.131 -2.487,-0.948 -5.684,-1.954 -9.592,-3.02 -6.04,-1.539 -11.191,-3.316 -15.454,-5.329 -4.145,-2.132 -7.461,-4.5 -9.948,-7.105 -2.131,-2.487 -3.789,-5.152 -4.974,-7.994 -1.065,-2.96 -1.598,-6.217 -1.598,-9.77 0,-4.263 0.947,-8.111 2.842,-11.546 1.895,-3.552 4.5,-6.572 7.816,-9.059 3.434,-2.487 7.342,-4.382 11.724,-5.684 4.381,-1.421 9,-2.132 13.855,-2.132 4.855,0 9.592,0.592 14.211,1.777 4.618,1.184 8.881,2.901 12.789,5.151 4.026,2.131 7.52,4.678 10.48,7.638 l -13.5,14.921 c -2.131,-2.013 -4.559,-3.848 -7.283,-5.506 -2.605,-1.658 -5.329,-2.961 -8.171,-3.908 -2.842,-0.948 -5.388,-1.421 -7.638,-1.421 -2.013,0 -3.849,0.177 -5.507,0.533 -1.539,0.355 -2.842,0.888 -3.907,1.598 -1.066,0.711 -1.895,1.658 -2.487,2.842 -0.474,1.066 -0.711,2.25 -0.711,3.553 0,1.303 0.296,2.546 0.888,3.73 0.711,1.185 1.658,2.191 2.842,3.02 1.303,0.711 3.198,1.54 5.685,2.487 2.605,0.947 6.098,2.013 10.48,3.197 5.684,1.54 10.48,3.257 14.388,5.152 4.027,1.894 7.224,4.085 9.592,6.572 2.014,2.132 3.494,4.559 4.441,7.283 0.948,2.724 1.421,5.744 1.421,9.059 0,5.803 -1.658,11.014 -4.973,15.632 -3.198,4.5 -7.639,8.053 -13.323,10.658 -5.684,2.487 -12.079,3.73 -19.184,3.73 z m 44.805,37.303 V 377.032 h 24.336 l 0.71,21.138 -4.618,-1.598 c 0.829,-3.79 2.842,-7.283 6.039,-10.481 3.316,-3.197 7.402,-5.802 12.257,-7.815 4.855,-2.014 9.947,-3.02 15.276,-3.02 8.171,0 15.395,2.131 21.672,6.395 6.394,4.144 11.427,9.888 15.098,17.23 3.79,7.224 5.685,15.573 5.685,25.046 0,9.356 -1.836,17.704 -5.507,25.047 -3.671,7.342 -8.704,13.144 -15.099,17.408 -6.395,4.144 -13.678,6.217 -21.849,6.217 -5.447,0 -10.658,-1.007 -15.631,-3.02 -4.856,-2.132 -9,-4.915 -12.435,-8.349 -3.434,-3.434 -5.566,-7.105 -6.394,-11.013 l 5.861,-2.487 v 62.349 z m 48.316,-59.152 c 4.619,0 8.704,-1.125 12.257,-3.375 3.552,-2.25 6.335,-5.388 8.349,-9.414 2.013,-4.145 3.019,-8.882 3.019,-14.211 0,-5.329 -1.006,-10.006 -3.019,-14.033 -2.014,-4.026 -4.797,-7.164 -8.349,-9.414 -3.434,-2.25 -7.52,-3.375 -12.257,-3.375 -4.737,0 -8.882,1.125 -12.434,3.375 -3.553,2.131 -6.336,5.269 -8.349,9.414 -2.013,4.027 -3.02,8.704 -3.02,14.033 0,5.329 1.007,10.066 3.02,14.211 2.013,4.026 4.796,7.164 8.349,9.414 3.552,2.25 7.697,3.375 12.434,3.375 z"
         fill="#3c3c3c"
         id="path12" /><path
         d="m 414.28,556.9 c -4.44,0 -8.55,-0.78 -12.33,-2.34 -3.72,-1.62 -6.99,-3.87 -9.81,-6.75 -2.76,-2.88 -4.92,-6.27 -6.48,-10.17 -1.5,-3.96 -2.25,-8.28 -2.25,-12.96 0,-4.68 0.75,-8.97 2.25,-12.87 1.56,-3.96 3.72,-7.38 6.48,-10.26 2.82,-2.94 6.09,-5.19 9.81,-6.75 3.78,-1.62 7.89,-2.43 12.33,-2.43 4.5,0 8.61,0.81 12.33,2.43 3.78,1.56 7.05,3.81 9.81,6.75 2.82,2.88 4.98,6.3 6.48,10.26 1.56,3.9 2.34,8.19 2.34,12.87 0,4.62 -0.78,8.91 -2.34,12.87 -1.5,3.9 -3.66,7.32 -6.48,10.26 -2.76,2.88 -6.03,5.13 -9.81,6.75 -3.72,1.56 -7.83,2.34 -12.33,2.34 z m 0,-6.93 c 3.42,0 6.57,-0.6 9.45,-1.8 2.94,-1.26 5.46,-3.03 7.56,-5.31 2.1,-2.28 3.72,-4.95 4.86,-8.01 1.2,-3.12 1.8,-6.51 1.8,-10.17 0,-3.72 -0.6,-7.11 -1.8,-10.17 -1.14,-3.12 -2.76,-5.82 -4.86,-8.1 -2.1,-2.28 -4.62,-4.05 -7.56,-5.31 -2.88,-1.26 -6.03,-1.89 -9.45,-1.89 -3.42,0 -6.6,0.63 -9.54,1.89 -2.88,1.26 -5.37,3.03 -7.47,5.31 -2.1,2.28 -3.72,4.98 -4.86,8.1 -1.14,3.06 -1.71,6.45 -1.71,10.17 0,3.66 0.57,7.05 1.71,10.17 1.14,3.06 2.76,5.73 4.86,8.01 2.1,2.28 4.59,4.05 7.47,5.31 2.94,1.2 6.12,1.8 9.54,1.8 z m 34.754,25.83 v -66.78 h 6.75 l 0.18,11.43 -1.26,0.18 c 0.54,-2.28 1.71,-4.35 3.51,-6.21 1.8,-1.92 3.99,-3.45 6.57,-4.59 2.58,-1.14 5.31,-1.71 8.19,-1.71 4.2,0 7.95,1.05 11.25,3.15 3.36,2.1 6.03,4.98 8.01,8.64 1.98,3.66 2.97,7.86 2.97,12.6 0,4.68 -0.96,8.85 -2.88,12.51 -1.92,3.66 -4.56,6.57 -7.92,8.73 -3.36,2.1 -7.14,3.15 -11.34,3.15 -2.94,0 -5.73,-0.6 -8.37,-1.8 -2.64,-1.2 -4.89,-2.76 -6.75,-4.68 -1.86,-1.98 -3.09,-4.11 -3.69,-6.39 h 1.62 v 31.77 z m 22.95,-25.38 c 3.18,0 6,-0.78 8.46,-2.34 2.46,-1.56 4.41,-3.69 5.85,-6.39 1.44,-2.7 2.16,-5.76 2.16,-9.18 0,-3.48 -0.72,-6.57 -2.16,-9.27 -1.44,-2.7 -3.39,-4.83 -5.85,-6.39 -2.46,-1.56 -5.28,-2.34 -8.46,-2.34 -3.18,0 -6.03,0.78 -8.55,2.34 -2.46,1.5 -4.41,3.6 -5.85,6.3 -1.44,2.7 -2.16,5.79 -2.16,9.27 0,3.48 0.72,6.57 2.16,9.27 1.44,2.7 3.39,4.83 5.85,6.39 2.52,1.56 5.37,2.34 8.55,2.34 z m 49.236,6.48 c -4.68,0 -8.85,-1.02 -12.51,-3.06 -3.6,-2.04 -6.42,-4.89 -8.46,-8.55 -2.04,-3.66 -3.06,-7.86 -3.06,-12.6 0,-3.66 0.57,-6.96 1.71,-9.9 1.14,-3 2.73,-5.61 4.77,-7.83 2.1,-2.22 4.59,-3.93 7.47,-5.13 2.88,-1.26 6,-1.89 9.36,-1.89 3.18,0 6.06,0.57 8.64,1.71 2.64,1.14 4.89,2.73 6.75,4.77 1.92,1.98 3.36,4.35 4.32,7.11 0.96,2.76 1.38,5.79 1.26,9.09 l -0.09,3.15 h -39.15 l -0.99,-5.67 h 35.01 l -1.62,1.53 v -2.16 c -0.12,-2.16 -0.75,-4.23 -1.89,-6.21 -1.14,-2.04 -2.76,-3.69 -4.86,-4.95 -2.04,-1.26 -4.5,-1.89 -7.38,-1.89 -3.36,0 -6.27,0.69 -8.73,2.07 -2.46,1.32 -4.35,3.3 -5.67,5.94 -1.32,2.64 -1.98,5.91 -1.98,9.81 0,3.72 0.72,6.96 2.16,9.72 1.44,2.7 3.48,4.8 6.12,6.3 2.7,1.5 5.94,2.25 9.72,2.25 2.22,0 4.41,-0.36 6.57,-1.08 2.22,-0.78 4.65,-2.28 7.29,-4.5 l 3.51,4.86 c -1.38,1.38 -3.03,2.61 -4.95,3.69 -1.92,1.02 -4.02,1.86 -6.3,2.52 -2.28,0.6 -4.62,0.9 -7.02,0.9 z m 24.437,-0.9 v -46.98 h 6.66 l 0.27,9.81 -1.08,0.45 c 0.6,-2.04 1.77,-3.9 3.51,-5.58 1.74,-1.68 3.81,-3.03 6.21,-4.05 2.46,-1.08 4.98,-1.62 7.56,-1.62 3.48,0 6.39,0.69 8.73,2.07 2.34,1.38 4.11,3.51 5.31,6.39 1.2,2.88 1.8,6.54 1.8,10.98 V 556 h -6.84 v -28.17 c 0,-3.12 -0.42,-5.67 -1.26,-7.65 -0.78,-2.04 -2.01,-3.54 -3.69,-4.5 -1.68,-0.96 -3.75,-1.41 -6.21,-1.35 -2.04,0 -3.93,0.36 -5.67,1.08 -1.74,0.66 -3.24,1.59 -4.5,2.79 -1.26,1.2 -2.25,2.58 -2.97,4.14 -0.72,1.56 -1.08,3.24 -1.08,5.04 V 556 h -3.33 c -0.42,0 -0.9,0 -1.44,0 -0.54,0 -1.2,0 -1.98,0 z m 45.556,0 v -63 h 7.02 v 63 z m 3.51,-28.08 v -6.93 h 31.86 v 6.93 z m 0,-28.08 V 493 h 36.09 v 6.84 z m 58.511,57.06 c -4.68,0 -8.85,-1.05 -12.51,-3.15 -3.6,-2.1 -6.45,-5.01 -8.55,-8.73 -2.04,-3.72 -3.06,-7.95 -3.06,-12.69 0,-4.68 1.02,-8.85 3.06,-12.51 2.1,-3.66 4.95,-6.54 8.55,-8.64 3.66,-2.1 7.83,-3.15 12.51,-3.15 4.62,0 8.73,1.05 12.33,3.15 3.66,2.1 6.51,4.98 8.55,8.64 2.1,3.66 3.15,7.83 3.15,12.51 0,4.74 -1.05,8.97 -3.15,12.69 -2.04,3.72 -4.89,6.63 -8.55,8.73 -3.6,2.1 -7.71,3.15 -12.33,3.15 z m 0,-6.39 c 3.3,0 6.24,-0.78 8.82,-2.34 2.58,-1.62 4.59,-3.78 6.03,-6.48 1.44,-2.76 2.16,-5.88 2.16,-9.36 0,-3.48 -0.72,-6.57 -2.16,-9.27 -1.44,-2.7 -3.45,-4.8 -6.03,-6.3 -2.58,-1.56 -5.52,-2.34 -8.82,-2.34 -3.3,0 -6.27,0.78 -8.91,2.34 -2.58,1.5 -4.62,3.63 -6.12,6.39 -1.44,2.7 -2.13,5.76 -2.07,9.18 -0.06,3.48 0.63,6.6 2.07,9.36 1.5,2.7 3.54,4.86 6.12,6.48 2.64,1.56 5.61,2.34 8.91,2.34 z m 25.778,5.49 v -46.98 h 6.75 l 0.18,12.51 -0.72,-1.71 c 0.66,-2.1 1.71,-4.05 3.15,-5.85 1.5,-1.8 3.27,-3.24 5.31,-4.32 2.04,-1.08 4.29,-1.62 6.75,-1.62 1.02,0 1.98,0.09 2.88,0.27 0.9,0.12 1.65,0.3 2.25,0.54 l -1.89,7.56 c -0.78,-0.36 -1.59,-0.6 -2.43,-0.72 -0.78,-0.18 -1.53,-0.27 -2.25,-0.27 -2.04,0 -3.87,0.36 -5.49,1.08 -1.62,0.72 -3,1.74 -4.14,3.06 -1.14,1.26 -2.01,2.73 -2.61,4.41 -0.6,1.68 -0.9,3.48 -0.9,5.4 V 556 Z m 29.074,0 v -46.98 h 6.75 V 556 Z m 3.33,-57.15 c -1.68,0 -2.97,-0.42 -3.87,-1.26 -0.84,-0.9 -1.26,-2.1 -1.26,-3.6 0,-1.5 0.45,-2.7 1.35,-3.6 0.9,-0.9 2.16,-1.35 3.78,-1.35 1.62,0 2.88,0.45 3.78,1.35 0.9,0.84 1.35,2.04 1.35,3.6 0,1.44 -0.45,2.61 -1.35,3.51 -0.9,0.9 -2.16,1.35 -3.78,1.35 z m 25.451,58.05 c -4.02,0 -7.62,-0.75 -10.8,-2.25 -3.18,-1.5 -5.7,-3.48 -7.56,-5.94 l 4.77,-4.14 c 1.74,2.1 3.78,3.69 6.12,4.77 2.4,1.08 5.07,1.62 8.01,1.62 1.5,0 2.85,-0.15 4.05,-0.45 1.2,-0.36 2.25,-0.87 3.15,-1.53 0.9,-0.66 1.59,-1.44 2.07,-2.34 0.48,-0.9 0.72,-1.89 0.72,-2.97 0,-1.98 -0.87,-3.63 -2.61,-4.95 -0.78,-0.54 -1.89,-1.08 -3.33,-1.62 -1.44,-0.6 -3.18,-1.17 -5.22,-1.71 -3.36,-0.96 -6.15,-1.92 -8.37,-2.88 -2.22,-1.02 -3.96,-2.19 -5.22,-3.51 -0.9,-1.08 -1.59,-2.25 -2.07,-3.51 -0.42,-1.26 -0.63,-2.64 -0.63,-4.14 0,-1.92 0.39,-3.69 1.17,-5.31 0.84,-1.62 1.98,-3.03 3.42,-4.23 1.5,-1.26 3.24,-2.19 5.22,-2.79 2.04,-0.66 4.23,-0.99 6.57,-0.99 2.22,0 4.41,0.3 6.57,0.9 2.16,0.6 4.17,1.47 6.03,2.61 1.86,1.14 3.45,2.49 4.77,4.05 l -4.14,4.5 c -1.14,-1.2 -2.4,-2.28 -3.78,-3.24 -1.38,-0.96 -2.85,-1.71 -4.41,-2.25 -1.5,-0.54 -3.06,-0.81 -4.68,-0.81 -1.44,0 -2.79,0.18 -4.05,0.54 -1.2,0.36 -2.25,0.87 -3.15,1.53 -0.84,0.6 -1.5,1.35 -1.98,2.25 -0.42,0.9 -0.63,1.89 -0.63,2.97 0,0.9 0.18,1.71 0.54,2.43 0.36,0.72 0.87,1.35 1.53,1.89 0.84,0.66 2.01,1.29 3.51,1.89 1.56,0.54 3.48,1.11 5.76,1.71 2.64,0.72 4.86,1.47 6.66,2.25 1.86,0.72 3.39,1.59 4.59,2.61 1.62,1.2 2.76,2.58 3.42,4.14 0.72,1.56 1.08,3.33 1.08,5.31 0,2.64 -0.75,4.98 -2.25,7.02 -1.44,2.04 -3.45,3.66 -6.03,4.86 -2.58,1.14 -5.52,1.71 -8.82,1.71 z"
         fill="#3c3c3c"
         id="path13" /></g><rect
       style="opacity:0;fill:none;stroke:#000000;stroke-width:0.099941;stroke-linecap:round;stroke-dasharray:none;stroke-opacity:1"
       id="rect1"
       width="169.2334"
       height="169.2334"
       x="20.333307"
       y="63.833305" /></g></svg>
