<?xml version="1.0" encoding="UTF-8" standalone="no"?>
<!-- Created with Inkscape (http://www.inkscape.org/) -->

<svg
   width="169.33333mm"
   height="169.33336mm"
   viewBox="0 0 169.33333 169.33336"
   version="1.1"
   id="svg1"
   xml:space="preserve"
   xmlns="http://www.w3.org/2000/svg"
   xmlns:svg="http://www.w3.org/2000/svg"><defs
     id="defs1" /><g
     id="layer1"
     transform="translate(-20.283337,-63.78334)"><rect
       style="opacity:0;fill:none;stroke:#000000;stroke-width:0.099941;stroke-linecap:round;stroke-dasharray:none;stroke-opacity:1"
       id="rect1"
       width="169.2334"
       height="169.2334"
       x="20.333307"
       y="63.833305" /><path
       style="fill:#000000"
       d="m 103.87058,172.96328 c -0.37299,-0.10044 -0.90184,-0.29673 -1.17522,-0.4362 -0.71998,-0.3673 -1.7604,-1.56688 -2.11012,-2.4329 l -0.2998,-0.74242 -0.0378,-8.03666 -0.0378,-8.03666 -8.036664,-0.0378 -8.03666,-0.0378 -0.74242,-0.2998 c -0.91163,-0.36813 -2.07369,-1.40308 -2.48353,-2.21188 -0.99389,-1.96133 -0.59216,-4.18719 1.02195,-5.6624 0.40885,-0.37366 1.03951,-0.78663 1.46158,-0.95707 l 0.74242,-0.2998 8.03666,-0.0378 8.036664,-0.0378 0.0378,-8.03666 0.0378,-8.03666 0.2998,-0.74242 c 0.36813,-0.91162 1.40308,-2.07368 2.21188,-2.48353 1.96133,-0.99388 4.18719,-0.59216 5.66239,1.02195 0.37367,0.40885 0.78664,1.03951 0.95708,1.46158 l 0.2998,0.74242 0.0378,8.03666 0.0378,8.03666 8.03666,0.0378 8.03666,0.0378 0.74241,0.2998 c 0.91163,0.36813 2.07369,1.40308 2.48354,2.21187 0.99777,1.96902 0.5848,4.19391 -1.05695,5.69438 -0.37742,0.34495 -1.01703,0.75971 -1.42659,0.9251 l -0.74241,0.2998 -8.03666,0.0378 -8.03666,0.0378 -0.0378,8.03666 -0.0378,8.03666 -0.29762,0.7366 c -0.56783,1.40533 -1.90168,2.55428 -3.36528,2.89877 -0.90513,0.21305 -1.31998,0.20852 -2.18291,-0.0239 z"
       id="path11" /></g></svg>
