<?xml version="1.0" encoding="UTF-8" standalone="no"?>
<!-- Created with Inkscape (http://www.inkscape.org/) -->

<svg
   width="29.697258mm"
   height="7.9375324mm"
   viewBox="0 0 29.697258 7.9375324"
   version="1.1"
   id="svg1"
   xml:space="preserve"
   xmlns="http://www.w3.org/2000/svg"
   xmlns:svg="http://www.w3.org/2000/svg"><defs
     id="defs1" /><g
     id="layer1"
     transform="translate(81.714724,-312.81075)"><g
       id="g1"
       transform="matrix(-0.07981617,0,0,0.07981617,-70.67421,297.83666)"
       style="fill:#ffffff;fill-opacity:1;stroke:#000000;stroke-width:5.15488"><path
         style="fill:#ffffff;fill-opacity:1;stroke:none;stroke-linecap:round;stroke-linejoin:round;stroke-miterlimit:10"
         d="m 88.599609,187.64258 a 2.5774415,2.5774415 0 0 0 -2.578125,2.57617 2.5774415,2.5774415 0 0 0 2.578125,2.57812 c 24.626171,0 44.535161,19.90899 44.535161,44.53516 0,24.62618 -19.90899,44.5332 -44.535161,44.5332 a 2.5774415,2.5774415 0 0 0 -2.578125,2.57813 2.5774415,2.5774415 0 0 0 2.578125,2.57617 c 27.412071,0 49.689451,-22.27542 49.689451,-49.6875 0,-27.41207 -22.27738,-49.68945 -49.689451,-49.68945 z"
         id="path2" /><path
         style="fill:#ffffff;fill-opacity:1;stroke:none;stroke-linecap:round;stroke-linejoin:round;stroke-miterlimit:10"
         d="m 88.599609,187.64258 a 2.5774415,2.5774415 0 0 0 -2.578125,2.57617 2.5774415,2.5774415 0 0 0 2.578125,2.57812 c 6.499665,0 12.704351,4.49994 17.445311,12.53125 4.74096,8.03132 7.78711,19.40549 7.78711,32.00391 0,12.59843 -3.04615,23.97064 -7.78711,32.00195 -4.74096,8.03132 -10.945646,12.53125 -17.445311,12.53125 a 2.5774415,2.5774415 0 0 0 -2.578125,2.57813 2.5774415,2.5774415 0 0 0 2.578125,2.57617 c 8.859397,0 16.560311,-6.04469 21.884771,-15.06445 5.32445,-9.01976 8.5039,-21.20234 8.5039,-34.62305 0,-13.4207 -3.17945,-25.60524 -8.5039,-34.625 -5.32446,-9.01976 -13.025374,-15.06445 -21.884771,-15.06445 z"
         id="path3" /><path
         style="fill:#ffffff;fill-opacity:1;stroke:none;stroke-linecap:round;stroke-linejoin:round;stroke-miterlimit:10"
         d="m 88.599609,206.94336 a 2.5774415,2.5774415 0 0 0 -2.578125,2.57812 2.5774415,2.5774415 0 0 0 2.578125,2.57618 c 12.598421,0 23.970641,3.0481 32.001951,7.78906 8.03132,4.74096 12.53321,10.94565 12.53321,17.44531 0,6.49966 -4.50189,12.70435 -12.53321,17.44531 -8.03131,4.74097 -19.40353,7.78711 -32.001951,7.78711 a 2.5774415,2.5774415 0 0 0 -2.578125,2.57813 2.5774415,2.5774415 0 0 0 2.578125,2.57617 c 13.420701,0 25.603281,-3.17945 34.623051,-8.50391 9.01976,-5.32445 15.0664,-13.02341 15.0664,-21.88281 0,-8.8594 -6.04664,-16.56031 -15.0664,-21.88476 -9.01977,-5.32445 -21.20235,-8.50391 -34.623051,-8.50391 z"
         id="path4" /><path
         style="fill:#ffffff;fill-opacity:1;stroke:none;stroke-linecap:round;stroke-linejoin:round;stroke-miterlimit:10"
         d="m 88.599609,187.60742 a 2.5774415,2.5774415 0 0 0 -2.578125,2.57813 v 94.29101 a 2.5774415,2.5774415 0 0 0 2.578125,2.57813 2.5774415,2.5774415 0 0 0 2.578125,-2.57813 v -94.29101 a 2.5774415,2.5774415 0 0 0 -2.578125,-2.57813 z"
         id="line4" /><path
         style="fill:#ffffff;fill-opacity:1;stroke:none;stroke-linecap:round;stroke-linejoin:round;stroke-miterlimit:10"
         d="m 88.599609,234.75391 a 2.5774415,2.5774415 0 0 0 -2.578125,2.57812 2.5774415,2.5774415 0 0 0 2.578125,2.57617 h 47.146481 a 2.5774415,2.5774415 0 0 0 2.57813,-2.57617 2.5774415,2.5774415 0 0 0 -2.57813,-2.57812 z"
         id="line5" /></g><text
       xml:space="preserve"
       style="font-style:italic;font-stretch:condensed;font-size:5.22757px;line-height:0.8;font-family:'Roboto Condensed';-inkscape-font-specification:'Roboto Condensed,  Italic Condensed';text-align:start;writing-mode:lr-tb;direction:ltr;text-anchor:start;opacity:1;fill:#ffffff;fill-opacity:1;stroke:none;stroke-width:0;stroke-linecap:round;stroke-dasharray:none;stroke-opacity:1"
       x="-76.601547"
       y="316.52594"
       id="text5"><tspan
         style="font-style:normal;font-variant:normal;font-weight:bold;font-stretch:normal;font-size:5.15493px;line-height:0.8;font-family:'Roboto Mono';-inkscape-font-specification:'Roboto Mono Bold';text-align:start;text-anchor:start;stroke:none;stroke-width:0;stroke-dasharray:none"
         id="tspan7"
         x="-76.601547"
         y="316.52594">ANALISIS</tspan><tspan
         style="font-style:normal;font-variant:normal;font-weight:bold;font-stretch:normal;font-size:4.12395px;line-height:0.8;font-family:'Roboto Mono';-inkscape-font-specification:'Roboto Mono Bold';text-align:start;text-anchor:start;stroke:none;stroke-width:0;stroke-dasharray:none"
         x="-76.601547"
         y="320.70801"
         id="tspan6">GEOSPASIAL</tspan></text></g><style
     type="text/css"
     id="style1">
	.st0{display:none;}
	.st1{display:inline;fill:#0D3252;}
	.st2{display:none;opacity:0.5;}
	.st3{display:inline;fill:#7DC242;}
	.st4{fill:none;stroke:#7DC242;stroke-width:8;stroke-linecap:round;stroke-linejoin:round;stroke-miterlimit:10;}
	.st5{fill:none;stroke:#0D3252;stroke-width:8;stroke-linecap:round;stroke-linejoin:round;stroke-miterlimit:10;}
	.st6{fill:#7DC242;stroke:#0D3252;stroke-width:8;stroke-linecap:round;stroke-linejoin:round;stroke-miterlimit:10;}
	.st7{fill:#0D3252;}
	.st8{display:inline;}
	.st9{fill:#FFFFFF;}
	.st10{fill:none;stroke:#7DC242;stroke-width:8;stroke-linejoin:bevel;stroke-miterlimit:10;}
	.st11{fill:#7DC242;}
</style></svg>
