<?xml version="1.0" encoding="UTF-8" standalone="no"?>
<!-- Created with Inkscape (http://www.inkscape.org/) -->

<svg
   width="29.688198mm"
   height="7.9375mm"
   viewBox="0 0 29.688198 7.9375"
   version="1.1"
   id="svg1"
   xml:space="preserve"
   xmlns:inkscape="http://www.inkscape.org/namespaces/inkscape"
   xmlns:sodipodi="http://sodipodi.sourceforge.net/DTD/sodipodi-0.dtd"
   xmlns="http://www.w3.org/2000/svg"
   xmlns:svg="http://www.w3.org/2000/svg"><sodipodi:namedview
     id="namedview1"
     pagecolor="#ffffff"
     bordercolor="#000000"
     borderopacity="0.25"
     inkscape:showpageshadow="2"
     inkscape:pageopacity="0.0"
     inkscape:pagecheckerboard="0"
     inkscape:deskcolor="#d1d1d1"
     inkscape:document-units="mm"><inkscape:page
       x="5.4908799e-14"
       y="0"
       width="29.688196"
       height="7.9375"
       id="page2"
       margin="0"
       bleed="0" /></sodipodi:namedview><defs
     id="defs1" /><g
     inkscape:label="Layer 1"
     inkscape:groupmode="layer"
     id="layer1"
     transform="translate(51.626192,-145.60539)"><g
       id="g25"
       transform="translate(-141.78662,1.074141)"><text
         xml:space="preserve"
         style="font-style:italic;font-stretch:condensed;font-size:5.22757px;line-height:0.8;font-family:'Roboto Condensed';-inkscape-font-specification:'Roboto Condensed,  Italic Condensed';text-align:start;writing-mode:lr-tb;direction:ltr;text-anchor:start;fill:#ffffff;fill-opacity:1;stroke:none;stroke-width:0;stroke-linecap:round;stroke-dasharray:none;stroke-opacity:1"
         x="95.264542"
         y="148.24641"
         id="text5"><tspan
           style="font-style:normal;font-variant:normal;font-weight:bold;font-stretch:normal;font-size:5.15493px;line-height:0.8;font-family:'Roboto Mono';-inkscape-font-specification:'Roboto Mono Bold';text-align:start;text-anchor:start;stroke:none;stroke-width:0;stroke-dasharray:none"
           id="tspan7"
           x="95.264542"
           y="148.24641">ANALISIS</tspan><tspan
           style="font-style:normal;font-variant:normal;font-weight:bold;font-stretch:normal;font-size:4.12395px;line-height:0.8;font-family:'Roboto Mono';-inkscape-font-specification:'Roboto Mono Bold';text-align:start;text-anchor:start;stroke:none;stroke-width:0;stroke-dasharray:none"
           x="95.264542"
           y="152.42848"
           id="tspan6">GEOSPASIAL</tspan></text><path
         style="fill:#33cccc;fill-opacity:1;stroke-width:0.0601992"
         d="m 91.72162,152.30305 c 0.01752,-0.007 0.04694,-0.0301 0.06537,-0.0508 0.05199,-0.0583 1.199472,-1.98264 1.252094,-2.09978 0.106739,-0.23763 0.168008,-0.57094 0.147345,-0.8016 -0.02461,-0.27473 -0.130743,-0.56668 -0.284167,-0.78168 -0.147844,-0.20719 -0.409934,-0.41365 -0.649672,-0.51178 -0.07107,-0.0291 -0.134528,-0.0615 -0.141018,-0.072 -0.0076,-0.0122 -0.01392,-0.0131 -0.01771,-0.002 -0.0039,0.011 -0.04078,0.008 -0.10944,-0.009 -0.159812,-0.0391 -0.481329,-0.0345 -0.660044,0.009 -0.478953,0.11751 -0.886021,0.47165 -1.065275,0.92677 -0.152774,0.38789 -0.126665,0.87999 0.06799,1.28146 0.03398,0.0701 0.319527,0.56464 0.634551,1.09901 0.491279,0.83336 0.580423,0.97556 0.626552,0.99944 0.05859,0.0303 0.08476,0.0328 0.133419,0.0127 z m -0.566375,-1.35857 c -0.274635,-0.46648 -0.522516,-0.9019 -0.550844,-0.9676 -0.141671,-0.32857 -0.134003,-0.7342 0.01963,-1.0384 0.205828,-0.40755 0.597348,-0.64994 1.049803,-0.64994 0.404599,0 0.766995,0.19737 0.984749,0.53632 0.144902,0.22555 0.19463,0.41751 0.181999,0.70254 -0.0105,0.23682 -0.06835,0.4261 -0.19338,0.63264 -0.04772,0.0788 -0.112322,0.1873 -0.143549,0.24102 -0.03123,0.0537 -0.193747,0.32608 -0.361156,0.60525 -0.16741,0.27917 -0.340825,0.5703 -0.385367,0.64696 -0.04454,0.0767 -0.08584,0.13936 -0.09177,0.13936 -0.0059,0 -0.235484,-0.38166 -0.51012,-0.84815 z m 0.05669,-0.99946 c -0.01586,-0.0175 -0.03241,-0.0319 -0.03679,-0.0319 -0.0044,0 0.005,0.0143 0.02087,0.0319 0.01586,0.0175 0.03241,0.0319 0.03679,0.0319 0.0044,0 -0.005,-0.0143 -0.02087,-0.0319 z m 1.105718,-0.40748 c -7.64e-4,-0.0186 -0.0045,-0.0223 -0.0096,-0.01 -0.0046,0.0115 -0.004,0.0252 0.0013,0.0305 0.0053,0.005 0.0091,-0.004 0.0084,-0.0209 z m -0.352847,-0.0544 c 0,-0.0307 -0.0033,-0.0432 -0.0073,-0.0279 -0.004,0.0153 -0.004,0.0404 0,0.0557 0.004,0.0153 0.0073,0.003 0.0073,-0.0279 z m 0.352847,-0.0571 c -7.64e-4,-0.0186 -0.0045,-0.0223 -0.0096,-0.01 -0.0046,0.0115 -0.004,0.0252 0.0013,0.0305 0.0053,0.005 0.0091,-0.004 0.0084,-0.0209 z m -0.623905,-0.2406 c -0.01533,-0.004 -0.04042,-0.004 -0.05575,0 -0.01533,0.004 -0.0028,0.007 0.02787,0.007 0.03066,0 0.0432,-0.003 0.02787,-0.007 z m 0.03882,-0.35031 c -0.0115,-0.005 -0.02523,-0.004 -0.03053,0.001 -0.0053,0.005 0.0041,0.009 0.0209,0.008 0.01855,-7.6e-4 0.02233,-0.005 0.0096,-0.01 z m -0.111494,0 c -0.0115,-0.005 -0.02524,-0.004 -0.03053,0.001 -0.0053,0.005 0.0041,0.009 0.02091,0.008 0.01855,-7.6e-4 0.02233,-0.005 0.0096,-0.01 z"
         id="path23"
         sodipodi:nodetypes="ssssssssssssssssssssssssssssssssssssssscsssssssssssssssssssss" /><path
         style="fill:#ffffff;fill-opacity:1;stroke:none;stroke-width:0;stroke-linecap:round;stroke-dasharray:none;stroke-opacity:1"
         d="m 94.289511,152.45914 c 0.0059,-0.006 0.01078,-1.79212 0.01078,-3.96933 v -3.95855 c -0.608241,0.004 -1.038549,0.0832 -1.390242,0.19741 -1.11825,0.36344 -2.012433,1.20963 -2.456757,2.32491 -0.113087,0.28385 -0.205444,0.63656 -0.24367,0.93056 -0.01826,0.14046 -0.023,0.92322 -0.0059,0.96789 0.0075,0.0196 0.0252,-0.006 0.06173,-0.0903 0.06061,-0.13936 0.16856,-0.30957 0.274631,-0.43299 l 0.07641,-0.0889 -0.0495,-0.005 -0.0495,-0.005 v -0.11005 c 0,-0.21894 0.110546,-0.72644 0.220227,-1.01102 0.122363,-0.31748 0.424211,-0.85316 0.505154,-0.89648 0.02639,-0.0141 0.06709,-0.003 0.215333,0.0583 0.100537,0.0416 0.35011,0.13213 0.554605,0.20115 0.315241,0.1064 0.37098,0.12995 0.366361,0.15477 -0.003,0.0161 -0.02999,0.11059 -0.05998,0.20997 -0.06774,0.22447 -0.14431,0.58913 -0.177886,0.84721 -0.01402,0.10775 -0.0232,0.19819 -0.02041,0.20096 0.006,0.006 0.307303,0.13713 0.315012,0.13713 0.0029,0 0.0053,-0.0287 0.0053,-0.0638 0,-0.0904 0.04397,-0.41617 0.08192,-0.60704 0.03429,-0.17247 0.153922,-0.61781 0.175209,-0.65225 0.01015,-0.0164 0.07072,-0.0106 0.294088,0.0282 0.337311,0.0587 0.595018,0.0926 0.818816,0.10803 l 0.165698,0.0114 v 0.69262 0.69262 l -0.622973,0.004 -0.622974,0.004 0.08244,0.097 c 0.04534,0.0533 0.101989,0.12765 0.125882,0.16511 l 0.04344,0.0681 0.497092,5.9e-4 0.497093,5.9e-4 v 0.69563 c 0,0.54198 -0.0045,0.69717 -0.02021,0.70264 -0.01111,0.004 -0.132961,0.0183 -0.270772,0.0322 -0.137813,0.0138 -0.336242,0.0371 -0.440954,0.0517 l -0.190386,0.0266 -0.210682,0.35393 -0.210682,0.35393 0.05946,0.10818 c 0.158609,0.28857 0.355035,0.55123 0.653259,0.87352 0.108237,0.11698 0.187184,0.21267 0.175437,0.21266 -0.04436,0 -0.350962,-0.0814 -0.506326,-0.13437 -0.228617,-0.0779 -0.425282,-0.16128 -0.62657,-0.26556 -0.09566,-0.0496 -0.176693,-0.0871 -0.180065,-0.0835 -0.0196,0.021 -0.157769,0.25993 -0.152949,0.26445 0.02659,0.0249 0.213734,0.12254 0.40436,0.21097 0.504372,0.23396 0.936521,0.34361 1.497398,0.37995 0.287566,0.0186 0.318396,0.0191 0.332215,0.005 z m -0.459852,-0.58076 c -0.310197,-0.25378 -0.702833,-0.74695 -0.909933,-1.14291 -0.08178,-0.15637 -0.08801,-0.18286 -0.04605,-0.19581 0.106423,-0.0328 0.840647,-0.12277 1.002246,-0.12277 h 0.101057 v 0.77595 c 0,0.56952 -0.0049,0.77595 -0.01841,0.77595 -0.01012,0 -0.06813,-0.0407 -0.128909,-0.0904 z m -0.329568,-5.30272 c -0.248525,-0.0266 -0.619784,-0.0941 -0.642609,-0.11695 -0.03263,-0.0326 0.226864,-0.48704 0.439508,-0.76962 0.195409,-0.25967 0.594661,-0.65535 0.661272,-0.65535 0.01392,0 0.01871,0.20261 0.01871,0.79087 v 0.79087 l -0.125283,-0.008 c -0.06891,-0.004 -0.227127,-0.0187 -0.351602,-0.032 z m -1.377642,-0.31151 c -0.334837,-0.11097 -0.572789,-0.19855 -0.618812,-0.22776 -0.01983,-0.0126 -0.008,-0.032 0.06466,-0.10667 0.451745,-0.46375 1.079432,-0.81737 1.735055,-0.97746 0.198596,-0.0485 0.253316,-0.0565 0.253316,-0.0371 0,0.006 -0.0784,0.0914 -0.174226,0.18995 -0.321054,0.3302 -0.556331,0.65656 -0.755454,1.0479 -0.07884,0.15495 -0.121412,0.22215 -0.140817,0.22228 -0.0153,1.6e-4 -0.178973,-0.0499 -0.363725,-0.11115 z"
         id="path24"
         sodipodi:nodetypes="csccssscscccssssssssssssscsccccccscccsccccccssccccsssccsscscssssccsssccccsscsssscss" /><path
         style="fill:#ffffff;fill-opacity:1;stroke:none;stroke-width:0;stroke-linecap:round;stroke-dasharray:none;stroke-opacity:1"
         d="m 91.83022,150.09469 c 0.191636,-0.0613 0.310969,-0.1625 0.400396,-0.33965 0.08598,-0.17032 0.05504,-0.43506 0.0073,-0.53092 -0.0663,-0.13305 -0.171428,-0.23769 -0.305237,-0.30382 -0.161296,-0.0804 -0.381354,-0.0811 -0.544488,-0.001 -0.123059,0.0624 -0.23007,0.17179 -0.293072,0.29972 -0.100142,0.20333 -0.04636,0.44239 -0.0088,0.52243 0.08477,0.18087 0.267613,0.32573 0.462648,0.36653 0.115672,0.0242 0.172468,0.0215 0.281331,-0.0133 z m -0.350333,-0.36337 c -0.107081,-0.0817 -0.151552,-0.24639 -0.0999,-0.37001 0.05443,-0.13026 0.289664,-0.27977 0.48677,-0.10671 0.15618,0.13713 0.126577,0.40307 -0.05597,0.50282 -0.08769,0.0479 -0.250708,0.0351 -0.330896,-0.0261 z"
         id="path25"
         sodipodi:nodetypes="sssssssssssssss" /></g></g><style
     type="text/css"
     id="style1">
	.st0{display:none;}
	.st1{display:inline;fill:#0D3252;}
	.st2{display:none;opacity:0.5;}
	.st3{display:inline;fill:#7DC242;}
	.st4{fill:none;stroke:#7DC242;stroke-width:8;stroke-linecap:round;stroke-linejoin:round;stroke-miterlimit:10;}
	.st5{fill:none;stroke:#0D3252;stroke-width:8;stroke-linecap:round;stroke-linejoin:round;stroke-miterlimit:10;}
	.st6{fill:#7DC242;stroke:#0D3252;stroke-width:8;stroke-linecap:round;stroke-linejoin:round;stroke-miterlimit:10;}
	.st7{fill:#0D3252;}
	.st8{display:inline;}
	.st9{fill:#FFFFFF;}
	.st10{fill:none;stroke:#7DC242;stroke-width:8;stroke-linejoin:bevel;stroke-miterlimit:10;}
	.st11{fill:#7DC242;}
</style></svg>
