<?xml version="1.0" encoding="UTF-8" standalone="no"?>
<!-- Created with Inkscape (http://www.inkscape.org/) -->

<svg
   width="39.952274mm"
   height="7.9374681mm"
   viewBox="0 0 39.952274 7.9374681"
   version="1.1"
   id="svg1"
   xml:space="preserve"
   xmlns="http://www.w3.org/2000/svg"
   xmlns:svg="http://www.w3.org/2000/svg"><defs
     id="defs1" /><g
     id="layer1"
     transform="translate(-246.10287,-162.42258)"><text
       xml:space="preserve"
       style="font-style:normal;font-variant:normal;font-weight:normal;font-stretch:normal;font-size:3.14365px;line-height:0;font-family:Sans;-inkscape-font-specification:'Sans, @wght=700';font-variant-ligatures:normal;font-variant-caps:normal;font-variant-numeric:normal;font-variant-east-asian:normal;font-variation-settings:'wght' 700;text-align:start;writing-mode:lr-tb;direction:ltr;text-anchor:start;fill:#000000;fill-opacity:1;stroke:none;stroke-width:0;stroke-linecap:round;stroke-dasharray:none;stroke-opacity:1"
       x="251.18544"
       y="167.05321"
       id="text5"><tspan
         id="tspan9"
         style="font-style:normal;font-variant:normal;font-weight:bold;font-stretch:normal;font-size:6.51343px;line-height:0.9;font-family:'Roboto Mono';-inkscape-font-specification:'Roboto Mono Bold';stroke-width:0"
         x="251.18544"
         y="167.05321">PENILAIAN</tspan><tspan
         id="tspan10"
         style="font-style:normal;font-variant:normal;font-weight:bold;font-stretch:normal;font-size:3.25671px;line-height:0.8;font-family:'Roboto Mono';-inkscape-font-specification:'Roboto Mono Bold';stroke-width:0"
         x="251.18544"
         y="170.32776">RISIKO DEFORESTASI</tspan></text><path
       style="fill:#33cccc;fill-opacity:1;stroke-width:0.0601992"
       d="m 247.66403,170.19435 c 0.0175,-0.007 0.0469,-0.0301 0.0654,-0.0508 0.052,-0.0583 1.19947,-1.98264 1.25209,-2.09978 0.10674,-0.23763 0.16801,-0.57094 0.14735,-0.8016 -0.0246,-0.27473 -0.13074,-0.56668 -0.28417,-0.78168 -0.14784,-0.20719 -0.40993,-0.41365 -0.64967,-0.51178 -0.0711,-0.0291 -0.13453,-0.0615 -0.14102,-0.072 -0.008,-0.0122 -0.0139,-0.0131 -0.0177,-0.002 -0.004,0.011 -0.0408,0.008 -0.10944,-0.009 -0.15981,-0.0391 -0.48133,-0.0345 -0.66004,0.009 -0.47896,0.11751 -0.88602,0.47165 -1.06528,0.92677 -0.15277,0.38789 -0.12666,0.87999 0.068,1.28146 0.034,0.0701 0.31953,0.56464 0.63455,1.09901 0.49128,0.83336 0.58043,0.97556 0.62656,0.99944 0.0586,0.0303 0.0848,0.0328 0.13341,0.0127 z m -0.56638,-1.35857 c -0.27463,-0.46648 -0.52251,-0.9019 -0.55084,-0.9676 -0.14167,-0.32857 -0.134,-0.7342 0.0196,-1.0384 0.20583,-0.40755 0.59735,-0.64994 1.0498,-0.64994 0.4046,0 0.767,0.19737 0.98475,0.53632 0.14491,0.22555 0.19463,0.41751 0.182,0.70254 -0.0105,0.23682 -0.0684,0.4261 -0.19338,0.63264 -0.0477,0.0788 -0.11232,0.1873 -0.14355,0.24102 -0.0312,0.0537 -0.19374,0.32608 -0.36115,0.60525 -0.16741,0.27917 -0.34083,0.5703 -0.38537,0.64696 -0.0445,0.0767 -0.0858,0.13936 -0.0918,0.13936 -0.006,0 -0.23548,-0.38166 -0.51012,-0.84815 z m 0.0567,-0.99946 c -0.0159,-0.0175 -0.0324,-0.0319 -0.0368,-0.0319 -0.004,0 0.005,0.0143 0.0209,0.0319 0.0159,0.0175 0.0324,0.0319 0.0368,0.0319 0.004,0 -0.005,-0.0143 -0.0209,-0.0319 z m 1.10572,-0.40748 c -7.6e-4,-0.0186 -0.005,-0.0223 -0.01,-0.01 -0.005,0.0115 -0.004,0.0252 0.001,0.0305 0.005,0.005 0.009,-0.004 0.008,-0.0209 z m -0.35284,-0.0544 c 0,-0.0307 -0.003,-0.0432 -0.007,-0.0279 -0.004,0.0153 -0.004,0.0404 0,0.0557 0.004,0.0153 0.007,0.003 0.007,-0.0279 z m 0.35284,-0.0571 c -7.6e-4,-0.0186 -0.005,-0.0223 -0.01,-0.01 -0.005,0.0115 -0.004,0.0252 0.001,0.0305 0.005,0.005 0.009,-0.004 0.008,-0.0209 z m -0.6239,-0.2406 c -0.0153,-0.004 -0.0404,-0.004 -0.0557,0 -0.0153,0.004 -0.003,0.007 0.0279,0.007 0.0307,0 0.0432,-0.003 0.0279,-0.007 z m 0.0388,-0.35031 c -0.0115,-0.005 -0.0252,-0.004 -0.0305,0.001 -0.005,0.005 0.004,0.009 0.0209,0.008 0.0186,-7.6e-4 0.0223,-0.005 0.01,-0.01 z m -0.1115,0 c -0.0115,-0.005 -0.0252,-0.004 -0.0305,0.001 -0.005,0.005 0.004,0.009 0.0209,0.008 0.0186,-7.6e-4 0.0223,-0.005 0.01,-0.01 z"
       id="path23" /><path
       style="fill:#000000;fill-opacity:1;stroke:none;stroke-width:0;stroke-linecap:round;stroke-dasharray:none;stroke-opacity:1"
       d="m 250.23192,170.35044 c 0.006,-0.006 0.0108,-1.79212 0.0108,-3.96933 v -3.95855 c -0.60824,0.004 -1.03855,0.0832 -1.39024,0.19741 -1.11825,0.36344 -2.01243,1.20963 -2.45676,2.32491 -0.11308,0.28385 -0.20544,0.63656 -0.24367,0.93056 -0.0183,0.14046 -0.023,0.92322 -0.006,0.96789 0.007,0.0196 0.0252,-0.006 0.0617,-0.0903 0.0606,-0.13936 0.16856,-0.30957 0.27463,-0.43299 l 0.0764,-0.0889 -0.0495,-0.005 -0.0495,-0.005 v -0.11005 c 0,-0.21894 0.11055,-0.72644 0.22023,-1.01102 0.12236,-0.31748 0.42421,-0.85316 0.50515,-0.89648 0.0264,-0.0141 0.0671,-0.003 0.21534,0.0583 0.10053,0.0416 0.35011,0.13213 0.5546,0.20115 0.31524,0.1064 0.37098,0.12995 0.36636,0.15477 -0.003,0.0161 -0.03,0.11059 -0.06,0.20997 -0.0677,0.22447 -0.14431,0.58913 -0.17788,0.84721 -0.014,0.10775 -0.0232,0.19819 -0.0204,0.20096 0.006,0.006 0.3073,0.13713 0.31501,0.13713 0.003,0 0.005,-0.0287 0.005,-0.0638 0,-0.0904 0.044,-0.41617 0.0819,-0.60704 0.0343,-0.17247 0.15392,-0.61781 0.17521,-0.65225 0.0102,-0.0164 0.0707,-0.0106 0.29409,0.0282 0.33731,0.0587 0.59501,0.0926 0.81881,0.10803 l 0.1657,0.0114 v 0.69262 0.69262 l -0.62297,0.004 -0.62298,0.004 0.0824,0.097 c 0.0453,0.0533 0.10199,0.12765 0.12589,0.16511 l 0.0434,0.0681 0.49709,5.9e-4 0.49709,5.9e-4 v 0.69563 c 0,0.54198 -0.005,0.69717 -0.0202,0.70264 -0.0111,0.004 -0.13296,0.0183 -0.27077,0.0322 -0.13781,0.0138 -0.33624,0.0371 -0.44096,0.0517 l -0.19038,0.0266 -0.21068,0.35393 -0.21069,0.35393 0.0595,0.10818 c 0.15861,0.28857 0.35504,0.55123 0.65326,0.87352 0.10824,0.11698 0.18719,0.21267 0.17544,0.21266 -0.0444,0 -0.35096,-0.0814 -0.50633,-0.13437 -0.22861,-0.0779 -0.42528,-0.16128 -0.62657,-0.26556 -0.0957,-0.0496 -0.17669,-0.0871 -0.18006,-0.0835 -0.0196,0.021 -0.15777,0.25993 -0.15295,0.26445 0.0266,0.0249 0.21373,0.12254 0.40436,0.21097 0.50437,0.23396 0.93652,0.34361 1.4974,0.37995 0.28756,0.0186 0.31839,0.0191 0.33221,0.005 z m -0.45985,-0.58076 c -0.3102,-0.25378 -0.70283,-0.74695 -0.90993,-1.14291 -0.0818,-0.15637 -0.088,-0.18286 -0.0461,-0.19581 0.10642,-0.0328 0.84064,-0.12277 1.00224,-0.12277 h 0.10106 v 0.77595 c 0,0.56952 -0.005,0.77595 -0.0184,0.77595 -0.0101,0 -0.0681,-0.0407 -0.12891,-0.0904 z m -0.32957,-5.30272 c -0.24852,-0.0266 -0.61978,-0.0941 -0.64261,-0.11695 -0.0326,-0.0326 0.22687,-0.48704 0.43951,-0.76962 0.19541,-0.25967 0.59466,-0.65535 0.66127,-0.65535 0.0139,0 0.0187,0.20261 0.0187,0.79087 v 0.79087 l -0.12528,-0.008 c -0.0689,-0.004 -0.22713,-0.0187 -0.3516,-0.032 z m -1.37764,-0.31151 c -0.33484,-0.11097 -0.57279,-0.19855 -0.61881,-0.22776 -0.0198,-0.0126 -0.008,-0.032 0.0647,-0.10667 0.45174,-0.46375 1.07943,-0.81737 1.73505,-0.97746 0.1986,-0.0485 0.25332,-0.0565 0.25332,-0.0371 0,0.006 -0.0784,0.0914 -0.17423,0.18995 -0.32105,0.3302 -0.55633,0.65656 -0.75545,1.0479 -0.0788,0.15495 -0.12141,0.22215 -0.14082,0.22228 -0.0153,1.6e-4 -0.17897,-0.0499 -0.36372,-0.11115 z"
       id="path24" /><path
       style="fill:#000000;fill-opacity:1;stroke:none;stroke-width:0;stroke-linecap:round;stroke-dasharray:none;stroke-opacity:1"
       d="m 247.77263,167.98599 c 0.19164,-0.0613 0.31097,-0.1625 0.4004,-0.33965 0.086,-0.17032 0.055,-0.43506 0.007,-0.53092 -0.0663,-0.13305 -0.17143,-0.23769 -0.30524,-0.30382 -0.1613,-0.0804 -0.38136,-0.0811 -0.54449,-0.001 -0.12306,0.0624 -0.23007,0.17179 -0.29307,0.29972 -0.10014,0.20333 -0.0464,0.44239 -0.009,0.52243 0.0848,0.18087 0.26761,0.32573 0.46265,0.36653 0.11567,0.0242 0.17246,0.0215 0.28133,-0.0133 z m -0.35033,-0.36337 c -0.10708,-0.0817 -0.15156,-0.24639 -0.0999,-0.37001 0.0544,-0.13026 0.28966,-0.27977 0.48677,-0.10671 0.15618,0.13713 0.12657,0.40307 -0.056,0.50282 -0.0877,0.0479 -0.25071,0.0351 -0.3309,-0.0261 z"
       id="path25" /></g><style
     type="text/css"
     id="style1">
	.st0{display:none;}
	.st1{display:inline;fill:#0D3252;}
	.st2{display:none;opacity:0.5;}
	.st3{display:inline;fill:#7DC242;}
	.st4{fill:none;stroke:#7DC242;stroke-width:8;stroke-linecap:round;stroke-linejoin:round;stroke-miterlimit:10;}
	.st5{fill:none;stroke:#0D3252;stroke-width:8;stroke-linecap:round;stroke-linejoin:round;stroke-miterlimit:10;}
	.st6{fill:#7DC242;stroke:#0D3252;stroke-width:8;stroke-linecap:round;stroke-linejoin:round;stroke-miterlimit:10;}
	.st7{fill:#0D3252;}
	.st8{display:inline;}
	.st9{fill:#FFFFFF;}
	.st10{fill:none;stroke:#7DC242;stroke-width:8;stroke-linejoin:bevel;stroke-miterlimit:10;}
	.st11{fill:#7DC242;}
</style></svg>
